<?xml version="1.0" encoding="utf-8"?>
<svg width="33px" height="52px" viewBox="0 0 33 52" version="1.1" xmlns:xlink="http://www.w3.org/1999/xlink" xmlns="http://www.w3.org/2000/svg">
  <desc>Created with Lunacy</desc>
  <path d="M12.2672 3.79068C9.30624 4.15634 6.61754 5.46332 4.49209 7.56957C4.13535 7.9231 3.67097 8.09953 3.20692 8.09953C2.73329 8.09953 2.26 7.91579 1.90144 7.54946C1.19158 6.82396 1.20066 5.65686 1.92142 4.94232C4.62779 2.26042 8.05079 0.596914 11.8208 0.131074C15.5913 -0.334767 19.3126 0.446396 22.5831 2.39C23.4544 2.90784 23.7436 4.03822 23.229 4.91491C22.7146 5.79143 21.5914 6.0825 20.7201 5.56499C18.1516 4.03838 15.2286 3.42468 12.2672 3.79068ZM9.09642 12.2723C10.1832 11.1954 11.5576 10.5273 13.0718 10.3404C14.5858 10.1531 16.0804 10.4669 17.3937 11.2476C18.2651 11.7654 19.388 11.4741 19.9024 10.5977C20.417 9.721 20.1278 8.59046 19.2566 8.07262C17.2415 6.87496 14.948 6.39367 12.6252 6.68058C10.3024 6.96766 8.19292 7.99271 6.52575 9.64525C5.80483 10.3598 5.79592 11.527 6.50594 12.2526C6.86434 12.6189 7.33763 12.8025 7.81125 12.8025C8.2753 12.8025 8.73968 12.626 9.09642 12.2723ZM6.03248 49.5852C8.3481 51.1642 11.2007 51.9447 14.6918 51.9447C15.7712 51.9447 16.9118 51.8701 18.1164 51.7212C23.2157 51.0912 26.883 49.4513 29.3279 46.7075C31.7703 43.9667 32.8146 40.3866 32.5206 35.7622C32.0289 28.0288 26.4516 21.2102 25.7304 20.3587C19.9473 13.1915 15.2251 12.9237 13.4602 13.1412L13.3576 13.154C11.5943 13.3718 7.07531 14.7821 3.18727 23.1438C2.69186 24.1464 -1.07963 32.1202 0.302776 39.7423C1.12951 44.3005 3.00387 47.5204 6.03248 49.5852ZM14.2251 16.937C14.0872 16.937 13.9867 16.9458 13.9253 16.9535L13.8062 16.9681C13.5642 16.998 12.6219 17.1804 11.3444 18.1875C9.64764 19.5254 8.01909 21.8091 6.6347 24.7917L6.61258 24.8379C6.45889 25.1469 2.86553 32.4811 4.05726 39.0525C4.69052 42.5438 6.03677 44.9489 8.17311 46.4054C10.4075 47.9289 13.5076 48.4208 17.6514 47.9091C21.7946 47.3974 24.6847 46.1655 26.4866 44.1433C28.2091 42.2102 28.9371 39.5491 28.7119 36.0073C28.2882 29.34 23.0379 23.0993 22.8147 22.8368L22.7817 22.7973C20.7214 20.2401 18.592 18.4208 16.6239 17.5356C15.4936 17.0273 14.6678 16.937 14.2251 16.937Z" id="Fill-1" fill="#05010A" fill-rule="evenodd" stroke="none" />
</svg>