<svg width="45" height="45" viewBox="0 0 45 45" fill="none" xmlns="http://www.w3.org/2000/svg">
<g clip-path="url(#clip0_1968_2446)">
<path d="M22.1764 25.2777C22.2372 28.0574 20.3002 29.7512 17.7116 29.812H10.997V14.7324H16.5911C19.7008 14.6716 21.6379 16.1223 21.7595 18.7282C21.8203 20.0572 21.5771 20.9693 20.3696 22.003C21.6379 22.8455 22.1504 23.775 22.1764 25.2777V25.2777ZM14.4803 20.6652H16.2783C17.2686 20.6652 18.1807 20.2396 18.1807 19.2146C18.1807 18.0593 17.2686 17.6945 16.2783 17.6945H14.4803V20.6652ZM18.1807 25.1474C18.1807 24.4873 17.7116 23.7142 16.5911 23.7142H14.4803V26.5807H16.5824C17.7116 26.5807 18.1807 25.8771 18.1807 25.1474V25.1474ZM34.0594 14.7324V18.0941H30.5414V29.8207H26.841V18.0941H23.3665V14.7324H34.0594Z" fill="#818181"/>
<path d="M22.2372 2.78856C24.8605 2.78856 27.4143 3.30106 29.8031 4.31737C32.1223 5.29894 34.1984 6.69745 35.9878 8.48685C37.7772 10.2762 39.1757 12.3523 40.1573 14.6716C41.1736 17.069 41.6861 19.6141 41.6861 22.2374C41.6861 24.8607 41.1736 27.4145 40.1573 29.8033C39.1757 32.1226 37.7772 34.1986 35.9878 35.988C34.1984 37.7774 32.1223 39.1759 29.8031 40.1575C27.4143 41.1738 24.8692 41.695 22.2372 41.695C19.6139 41.695 17.0601 41.1825 14.6713 40.1662C12.3521 39.1846 10.276 37.7861 8.48662 35.9967C6.69722 34.2073 5.29871 32.1313 4.31715 29.812C3.30084 27.4145 2.78834 24.8694 2.78834 22.2461C2.78834 19.6228 3.30084 17.069 4.31715 14.6803C5.29871 12.361 6.69722 10.2849 8.48662 8.49554C10.276 6.70613 12.3521 5.30762 14.6713 4.32606C17.0688 3.30975 19.6139 2.78856 22.2372 2.78856M22.2372 0.00891113C9.95463 0.00891113 0 9.96354 0 22.2461C0 34.5287 9.95463 44.4833 22.2372 44.4833C34.5198 44.4833 44.4744 34.5287 44.4744 22.2461C44.4744 9.96354 34.5198 0.00891113 22.2372 0.00891113Z" fill="#818181"/>
</g>
<defs>
<clipPath id="clip0_1968_2446">
<rect width="44.4744" height="44.4922" fill="white"/>
</clipPath>
</defs>
</svg>
