<svg width="58" height="36" viewBox="0 0 58 36" fill="none" xmlns="http://www.w3.org/2000/svg">
<path fill-rule="evenodd" clip-rule="evenodd" d="M5.15275 28.4897L3.58408 33.0435L1.97944 28.4897H0L2.44663 35.1485H4.61984L7.08042 28.4897H5.15275V28.4897ZM17.1283 31.8273C17.1283 31.4714 17.2339 31.1234 17.4316 30.8275C17.6294 30.5315 17.9105 30.3009 18.2393 30.1647C18.5682 30.0285 18.93 29.9928 19.2791 30.0623C19.6282 30.1318 19.9489 30.3032 20.2006 30.5549C20.4523 30.8066 20.6236 31.1273 20.693 31.4764C20.7624 31.8256 20.7268 32.1874 20.5905 32.5163C20.4542 32.8451 20.2235 33.1261 19.9275 33.3238C19.6315 33.5215 19.2836 33.627 18.9276 33.627C18.4504 33.6267 17.9929 33.437 17.6555 33.0996C17.3181 32.7621 17.1285 32.3045 17.1283 31.8273ZM20.6516 25.7746V29.0437C20.6479 29.0419 20.6454 29.0394 20.6426 29.0372C20.0958 28.6333 19.4271 28.3815 18.7032 28.3815C16.8626 28.3815 15.3705 29.9189 15.3705 31.8159C15.3705 33.7122 16.8623 35.2496 18.7032 35.2496C19.4311 35.2496 20.1041 35.0093 20.6516 34.6017V35.1575H22.3629V25.7746H20.6516ZM25.268 31.8273C25.2768 31.3559 25.4702 30.9068 25.8067 30.5765C26.1432 30.2462 26.5959 30.0611 27.0674 30.0611C27.5389 30.0611 27.9916 30.2462 28.328 30.5765C28.6645 30.9068 28.8579 31.3559 28.8667 31.8273C28.8666 32.3047 28.6769 32.7624 28.3394 33.0999C28.0018 33.4374 27.5441 33.627 27.0667 33.627C26.5896 33.6267 26.1322 33.4369 25.7949 33.0995C25.4576 32.762 25.2681 32.3045 25.268 31.8273ZM28.7907 28.4969V29.0437L28.7818 29.0372C28.2361 28.6333 27.5659 28.3815 26.8423 28.3815C25.0017 28.3815 23.5096 29.9189 23.5096 31.8159C23.5096 33.7122 25.0014 35.2496 26.8423 35.2496C27.5702 35.2496 28.2426 35.0093 28.7907 34.6017V35.1575H30.5026V28.4972H28.7907V28.4969ZM35.1668 28.4969H34.1416C34.1416 28.4969 34.1379 28.2836 34.1379 28.0923C34.1379 27.6704 34.1379 27.1343 34.81 27.1343C34.9827 27.1343 35.1485 27.1635 35.1485 27.1635V25.6147C35.1485 25.6147 34.8676 25.6069 34.6764 25.6147C33.1027 25.6757 32.4099 26.213 32.4099 27.786V28.4969H31.6438V30.0317H32.4099V35.147H34.1416V30.0317H35.1668V28.4969V28.4969ZM45.5256 29.0772C46.0117 28.6345 46.7214 28.3586 47.4831 28.3586C49.0521 28.3586 49.9505 29.3578 49.9548 30.6772L49.9554 31.4231V35.1488H48.1893V31.2622C48.1893 30.2838 47.5076 29.9859 46.9684 29.9859C46.4718 29.9859 45.5225 30.2596 45.5759 31.4541V35.1488H43.8066V28.4969H45.5256V29.0772V29.0772ZM52.9412 32.3438C53.0252 33.1799 53.7246 33.7897 54.5815 33.7897C55.2573 33.7897 55.7053 33.5228 55.971 33.0376H57.8202C57.5241 34.0743 56.3585 35.2465 54.6407 35.2465C52.5735 35.2465 51.1167 33.7073 51.1167 31.8084C51.1167 29.9096 52.6783 28.3698 54.6407 28.3698C56.6037 28.3698 58 30.0432 58 31.8084C58 32.1761 57.9588 32.3413 57.9588 32.3413L52.9412 32.3438ZM56.1337 31.057C55.9843 30.3018 55.3509 29.8671 54.5812 29.8671C53.7869 29.8671 53.1656 30.3297 52.9868 31.052L56.1337 31.057ZM12.133 28.5908C11.8193 28.6596 11.5383 28.8334 11.3366 29.0834C11.135 29.3334 11.0246 29.6448 11.0238 29.966C11.0238 29.9806 11.0275 29.9983 11.0278 30.0119C12.0279 30.2252 12.5323 30.8995 12.5323 31.788C12.5323 32.7872 11.7154 33.5972 10.7166 33.5972C9.71772 33.5972 8.78457 32.7636 8.78457 31.5282C8.78457 30.02 10.0776 28.6041 11.9207 28.5601C11.9535 28.5595 12.0062 28.5607 12.0599 28.5632C11.6423 28.4045 11.1993 28.3235 10.7525 28.3242C8.77527 28.3242 7.1725 29.8755 7.1725 31.7883C7.1725 33.7017 8.77527 35.2524 10.7525 35.2524C12.7301 35.2524 14.3329 33.7017 14.3329 31.7883C14.3329 30.3486 13.4249 29.1147 12.133 28.5908V28.5908ZM39.1325 28.353C37.1549 28.353 35.5515 29.9037 35.5515 31.8171C35.5515 33.2565 36.4599 34.491 37.7526 35.0137C38.0662 34.9449 38.347 34.7712 38.5484 34.5213C38.7499 34.2713 38.86 33.9601 38.8606 33.6391C38.8606 33.6245 38.8575 33.6075 38.8569 33.5932C37.8565 33.3805 37.3521 32.7062 37.3521 31.8171C37.3521 30.8173 38.169 30.0085 39.1679 30.0085C40.1667 30.0085 41.0999 30.8412 41.0999 32.0769C41.0999 33.5857 39.8065 35.0003 37.9641 35.0456C37.9176 35.0457 37.8712 35.0444 37.8249 35.0419C38.2294 35.1957 38.6703 35.2809 39.1322 35.2809C41.1092 35.2809 42.7119 33.7296 42.7119 31.8168C42.7123 29.9037 41.1095 28.353 39.1325 28.353V28.353ZM33.3253 0.855652C31.3127 1.29866 29.7964 3.10326 29.7964 5.26344C29.7964 5.30994 29.8073 5.36512 29.8091 5.41162C32.9917 6.09366 34.5967 8.25384 34.5967 11.105C34.5967 14.3072 31.9972 16.9042 28.8186 16.9042C25.6407 16.9042 22.6717 14.2325 22.6717 10.2711C22.6717 5.43488 26.7859 0.898433 32.6486 0.754587C32.7546 0.752417 32.9217 0.756448 33.0931 0.763888C31.7651 0.256891 30.3552 -0.00202424 28.9337 1.19165e-05C22.6422 1.19165e-05 17.5412 4.97203 17.5412 11.1054C17.5412 17.239 22.6422 22.2107 28.9337 22.2107C35.2242 22.2107 40.3248 17.2387 40.3248 11.1054C40.3248 6.48924 37.4361 2.53097 33.3253 0.855652V0.855652Z" fill="#818181"/>
</svg>
