<svg width="96" height="38" viewBox="0 0 96 38" fill="none" xmlns="http://www.w3.org/2000/svg">
<g clip-path="url(#clip0_2_271)">
<path fill-rule="evenodd" clip-rule="evenodd" d="M4.10974 1.76038C3.24736 2.28069 2.48814 2.95534 1.87007 3.75059L1.45935 4.27984L2.21601 5.08061L2.77834 4.71123C3.48807 4.23129 4.23519 3.8091 5.0125 3.44875C6.47198 2.75794 8.11525 2.55591 9.69859 2.87263C10.5386 3.03583 11.364 3.26628 12.1671 3.56176L12.8011 3.78366L13.3413 2.81888L12.8162 2.4054C12.024 1.78382 11.1242 1.31335 10.1617 1.01749C9.1593 0.695768 8.09899 0.595577 7.05407 0.723842C6.00916 0.852106 5.00457 1.20577 4.10974 1.76038ZM5.4136 5.09035C4.78889 5.44692 4.24347 5.92715 3.81068 6.50168L3.41237 7.03783L4.16765 7.81241L4.73136 7.44579C5.19653 7.13447 5.6887 6.86555 6.20196 6.64227C7.18127 6.22282 8.25963 6.09042 9.31132 6.26049C9.86428 6.35242 10.4077 6.49451 10.9349 6.685L11.5703 6.90414L12.1147 5.96968L11.5992 5.54517C11.04 5.09235 10.3942 4.75843 9.70137 4.56385C8.98859 4.35423 8.24043 4.2928 7.503 4.38335C6.76557 4.4739 6.05449 4.71451 5.4136 5.09035ZM38.4849 25.3907C35.9269 25.3907 34.459 23.6596 34.459 20.6426V13.3378H37.4912V19.6089C37.4912 21.5564 37.8468 22.8533 39.5848 22.8533C41.2318 22.8533 42.1373 21.6708 42.1373 19.5248V13.335H45.1419V25.1371H42.7906L42.4722 23.4418C42.4722 23.4418 41.8162 25.3907 38.4849 25.3907ZM52.1463 25.3797C50.4234 25.3797 48.9763 24.8146 47.9508 23.745C46.9254 22.6755 46.3782 21.1263 46.3782 19.3001C46.3782 17.4423 46.9419 15.8545 48.0087 14.7229C49.0755 13.5914 50.5048 13.0084 52.1876 13.0084C53.7506 13.0084 55.0213 13.4742 55.9654 14.3949C56.8227 15.2301 57.3905 16.4141 57.6565 17.9136L54.7856 18.549C54.4838 16.9998 53.978 15.4135 52.1876 15.4135C50.5985 15.4135 49.5317 16.9295 49.5317 19.1789C49.5317 21.493 50.5819 22.9884 52.2083 22.9884C53.6031 22.9884 54.5982 22.1339 55.0268 20.575L57.6097 21.759C56.6187 24.1999 54.8297 25.3797 52.1463 25.3797ZM27.9578 25.3797C26.2336 25.3797 24.7878 24.8146 23.7624 23.745C22.7369 22.6755 22.1898 21.1263 22.1898 19.3001C22.1898 17.4423 22.7535 15.8545 23.8202 14.7229C24.887 13.5914 26.3163 13.0084 28.0005 13.0084C29.5635 13.0084 30.8342 13.4742 31.7783 14.3949C32.6356 15.2301 33.2034 16.4141 33.4694 17.9136L30.5958 18.549C30.2953 16.9929 29.7922 15.4066 28.0005 15.4066C26.4114 15.4066 25.3446 16.9226 25.3446 19.172C25.3446 21.4861 26.3948 22.9815 28.0212 22.9815C29.416 22.9815 30.4111 22.127 30.8397 20.5681L33.4226 21.7521C32.4302 24.1999 30.6399 25.3797 27.9578 25.3797ZM89.34 25.3797C87.5703 25.3797 85.9274 24.7167 84.8317 23.5617C83.8022 22.477 83.2619 20.9734 83.2715 19.2161C83.2908 15.4314 85.6987 12.9863 89.4048 12.9863C91.0118 12.9863 92.499 13.5459 93.5933 14.5644C94.7952 15.6822 95.4306 17.2617 95.4306 19.1292C95.4306 21.1098 94.8007 22.7403 93.6071 23.8429C92.5362 24.8297 91.0201 25.3755 89.34 25.3755V25.3797ZM89.3621 15.3418C88.9548 15.3306 88.5508 15.4179 88.1844 15.5962C87.818 15.7744 87.5001 16.0385 87.2575 16.3658C86.7544 17.0357 86.4884 18.0197 86.4884 19.1926C86.4884 21.5205 87.6158 23.0228 89.3621 23.0228C91.1538 23.0228 92.2137 21.5922 92.2137 19.1926C92.2137 16.8138 91.1249 15.3376 89.3621 15.3376V15.3418ZM76.4326 25.3755C74.6615 25.3755 73.0186 24.7126 71.9229 23.5576C70.8934 22.4729 70.3545 20.9692 70.3627 19.2119C70.3834 15.4272 72.7912 12.9822 76.4974 12.9822C78.0426 12.9587 79.5392 13.5228 80.6845 14.5603C81.8878 15.6781 82.5231 17.2576 82.5231 19.1251C82.5231 21.1057 81.8919 22.7362 80.6983 23.8388C79.6274 24.8297 78.1127 25.3755 76.4326 25.3755ZM76.4533 15.3376C76.0462 15.3265 75.6424 15.4138 75.2762 15.592C74.9101 15.7703 74.5923 16.0344 74.35 16.3617C73.8456 17.0315 73.5796 18.0156 73.5796 19.1885C73.5796 21.5164 74.7084 23.0187 76.4533 23.0187C78.245 23.0187 79.3063 21.5881 79.3063 19.1885C79.3063 16.8138 78.2133 15.3376 76.4533 15.3376ZM68.7502 25.3797C66.9488 25.3797 65.5802 24.2771 64.9531 23.4198C64.233 22.4427 63.595 21.4078 63.0456 20.3256L62.9353 20.0968L61.79 21.3565V25.0902H58.766V8.21204H61.79V18.6372L66.3382 13.2882H69.8032L65.3514 18.3836L65.4175 18.4994C65.4286 18.5187 65.6932 18.9804 66.7035 20.5847C67.5028 21.8527 68.3422 22.5377 69.2725 22.5377C69.5138 22.538 69.7544 22.5135 69.9906 22.4646L69.93 25.1343C69.5096 25.3797 69.1375 25.3797 68.7502 25.3797ZM9.33887 31.4716C4.61557 31.4716 0.970067 28.5855 0.433924 24.2137C0.0810887 21.3359 0.676499 17.5319 1.98998 14.2902C4.04773 9.20443 6.60578 8.16935 7.94683 8.00396C9.28788 7.83857 12.0223 8.22586 15.2516 12.6611C17.3107 15.4948 18.8103 19.0411 19.1631 21.9175C19.3113 23.0479 19.2139 24.197 18.8776 25.2864C18.5412 26.3758 17.9739 27.3798 17.2143 28.2299C15.6982 29.9445 13.4227 31.065 10.8205 31.3834C10.3289 31.4432 9.83409 31.4726 9.33887 31.4716ZM8.46092 10.0369C8.3734 10.0364 8.28592 10.0414 8.19905 10.0521C6.70639 10.2354 5.10072 12.1084 3.90714 15.0607C2.73562 17.955 2.17743 21.4503 2.48616 23.9615C2.93133 27.5904 6.33013 29.848 10.5655 29.3284C12.6674 29.0693 14.477 28.1914 15.6651 26.8476C16.2284 26.2161 16.6488 25.4706 16.8979 24.6619C17.1469 23.8533 17.2186 23.0004 17.1081 22.1615C16.7994 19.6517 15.4129 16.3962 13.5756 13.8698C11.8101 11.4455 9.92325 10.0369 8.46092 10.0369Z" fill="#1F1F1F"/>
</g>
<defs>
<clipPath id="clip0_2_271">
<rect width="95.3333" height="36.6667" fill="white" transform="translate(0.333313 0.666626)"/>
</clipPath>
</defs>
</svg>
